<?xml version="1.0" encoding="UTF-8"?>
<svg width="73px" height="73px" viewBox="0 0 73 73" version="1.1" xmlns="http://www.w3.org/2000/svg" xmlns:xlink="http://www.w3.org/1999/xlink">
    <title>TimeChimp Logo</title>
    <g id="Branding-/-Logo" stroke="none" stroke-width="1" fill="none" fill-rule="evenodd">
        <path d="M36.052,-7.10542736e-15 L36.052,-7.10542736e-15 C16.223,-7.10542736e-15 2.13162821e-14,16.223 2.13162821e-14,36.052 C2.13162821e-14,55.88 16.223,72.104 36.052,72.104 C55.881,72.104 72.104,55.88 72.104,36.052 C72.104,16.223 55.881,-7.10542736e-15 36.052,-7.10542736e-15" id="Fill-15" fill="#33D5B4"></path>
        <path d="M58.8035,30.982 C58.7975,30.954 58.7765,30.932 58.7495,30.924 C58.7415,30.922 58.7345,30.921 58.7275,30.921 C58.7065,30.921 58.6865,30.929 58.6725,30.944 L54.2125,35.403 C54.1975,35.419 54.1895,35.439 54.1895,35.461 C54.1975,35.687 54.2005,35.875 54.2005,36.052 C54.2005,40.892 52.3105,45.447 48.8785,48.878 C45.4475,52.311 40.8915,54.2 36.0525,54.2 C31.2125,54.2 26.6565,52.311 23.2245,48.878 C19.7935,45.447 17.9035,40.892 17.9035,36.052 C17.9035,26.045 26.0445,17.903 36.0525,17.903 C36.2335,17.903 36.4255,17.907 36.6575,17.915 L36.6595,17.915 C36.6795,17.915 36.6995,17.906 36.7145,17.892 L41.1725,13.435 C41.1925,13.414 41.1995,13.385 41.1915,13.357 C41.1835,13.33 41.1615,13.309 41.1335,13.303 C39.4705,12.932 37.7605,12.743 36.0525,12.743 C23.1995,12.743 12.7435,23.199 12.7435,36.052 C12.7435,48.904 23.1995,59.36 36.0525,59.36 C48.9045,59.36 59.3605,48.904 59.3605,36.052 C59.3605,34.347 59.1735,32.642 58.8035,30.982" id="Fill-16" fill="#FFFFFF"></path>
        <path d="M40.3039,18.3668 C40.3109,18.3938 40.3329,18.4148 40.3609,18.4218 C42.6979,18.9928 44.8709,20.0138 46.8199,21.4558 L34.1069,34.1698 C33.0509,35.2248 33.0509,36.9418 34.1069,37.9968 C34.6179,38.5088 35.2979,38.7898 36.0199,38.7898 C36.7429,38.7898 37.4229,38.5088 37.9339,37.9968 L50.6479,25.2838 C52.0929,27.2358 53.1149,29.4128 53.6849,31.7548 C53.6919,31.7828 53.7129,31.8048 53.7399,31.8118 C53.7469,31.8138 53.7539,31.8148 53.7609,31.8148 C53.7819,31.8148 53.8019,31.8068 53.8159,31.7918 L57.8029,27.8048 C57.8249,27.7838 57.8309,27.7508 57.8209,27.7218 C55.4519,21.5548 50.5579,16.6588 44.3919,14.2868 C44.3829,14.2838 44.3739,14.2828 44.3649,14.2828 C44.3439,14.2828 44.3239,14.2898 44.3089,14.3048 L40.3239,18.2898 C40.3039,18.3098 40.2959,18.3398 40.3039,18.3668" id="Fill-17" fill="#FFFFFF"></path>
    </g>
</svg>