<svg xmlns="http://www.w3.org/2000/svg" xmlns:xlink="http://www.w3.org/1999/xlink" xmlns:a="http://ns.adobe.com/AdobeSVGViewerExtensions/3.0/"
    version="1.1"
    x="0px"
    y="0px"
    width="188.8px"
    height="40.6px"
    viewBox="0 0 188.8 40.6"
    enable-background="new 0 0 188.8 40.6"
    xml:space="preserve"> <defs> </defs> <g> <path
            fill="#333333"
            class="logoText"
            d="M64.8,12.9h-5.5v16.5h-3.9V12.9h-5.5v-3h14.9L64.8,12.9L64.8,12.9z" /> <path
            fill="#333333"
            class="logoText"
            d="M70.8,12.9h-3.9V9.9h3.9V12.9z M70.8,29.4h-3.9V14.9h3.9V29.4z" /> <path
            fill="#333333"
            class="logoText"
            d="M77.6,14.9l0.2,1.9c0.5-0.7,1.1-1.2,1.7-1.6c0.7-0.4,1.5-0.6,2.4-0.6c0.9,0,1.7,0.2,2.4,0.6 c0.7,0.4,1.2,1,1.5,1.9c0.5-0.8,1-1.4,1.7-1.8c0.7-0.4,1.6-0.7,2.5-0.7c1.4,0,2.5,0.5,3.4,1.5c0.8,1,1.2,2.5,1.2,4.5v8.8h-3.9v-8.8 c0-1.1-0.2-1.9-0.5-2.3c-0.4-0.4-0.9-0.6-1.6-0.6c-0.6,0-1,0.1-1.4,0.4c-0.4,0.2-0.7,0.6-1,1c0,0.2,0,0.3,0,0.4c0,0.1,0,0.2,0,0.4 v9.5h-3.9v-8.8c0-1.1-0.2-1.8-0.5-2.3c-0.4-0.4-0.9-0.7-1.6-0.7c-0.5,0-1,0.1-1.4,0.3s-0.7,0.5-1,0.8v10.6H74V14.9L77.6,14.9 L77.6,14.9z" /> <path
            fill="#333333"
            class="logoText"
            d="M104.1,29.7c-2.1,0-3.8-0.7-5-2c-1.2-1.3-1.9-3-1.9-5.1v-0.5c0-2.2,0.6-3.9,1.8-5.3 c1.2-1.4,2.8-2.1,4.8-2.1c1.9,0,3.5,0.6,4.6,1.8s1.6,2.8,1.6,4.8v2.1h-8.6l0,0.1c0.1,1,0.4,1.7,1,2.3c0.6,0.6,1.3,0.9,2.3,0.9 c0.9,0,1.6-0.1,2.2-0.3c0.6-0.2,1.2-0.5,1.9-0.8l1.1,2.4c-0.6,0.5-1.4,0.9-2.3,1.2C106.3,29.5,105.3,29.7,104.1,29.7z M103.8,17.7 c-0.7,0-1.3,0.3-1.7,0.8s-0.7,1.3-0.8,2.2l0,0.1h4.8v-0.4c0-0.8-0.2-1.5-0.6-2C105.1,17.9,104.5,17.7,103.8,17.7z" /> <path
            fill="#333333"
            class="logoText"
            d="M126.9,23.2L126.9,23.2c0.1,1.9-0.6,3.4-1.9,4.7c-1.3,1.2-3.1,1.9-5.2,1.9c-2.2,0-4-0.8-5.4-2.3 c-1.4-1.6-2.1-3.5-2.1-5.9V18c0-2.4,0.7-4.4,2.1-5.9c1.4-1.6,3.2-2.3,5.4-2.3c2.2,0,4,0.6,5.3,1.8c1.3,1.2,1.9,2.7,1.9,4.7l0,0.1 h-2.5c0-1.4-0.4-2.4-1.2-3.2c-0.8-0.8-1.9-1.2-3.4-1.2c-1.5,0-2.6,0.6-3.5,1.8c-0.9,1.2-1.3,2.6-1.3,4.4v3.5c0,1.8,0.4,3.2,1.3,4.4 c0.9,1.2,2,1.8,3.5,1.8s2.6-0.4,3.4-1.2c0.8-0.8,1.2-1.9,1.2-3.3L126.9,23.2L126.9,23.2z" /> <path
            fill="#333333"
            class="logoText"
            d="M132.6,16.9c0.5-0.7,1.1-1.2,1.8-1.6c0.7-0.4,1.5-0.6,2.4-0.6c1.6,0,2.8,0.5,3.6,1.4 c0.9,0.9,1.3,2.4,1.3,4.3v9.1h-2.6v-9.1c0-1.2-0.2-2.1-0.8-2.6c-0.5-0.6-1.3-0.8-2.3-0.8c-0.7,0-1.4,0.2-2,0.5s-1.1,0.8-1.5,1.4 v10.7H130V8.5h2.6L132.6,16.9L132.6,16.9z" /> <path
            fill="#333333"
            class="logoText"
            d="M148.4,12.9h-2.6V9.9h2.6V12.9z M148.4,29.4h-2.6V14.9h2.6V29.4z" /> <path
            fill="#333333"
            class="logoText"
            d="M154.8,14.9l0.2,1.9c0.5-0.7,1.1-1.2,1.8-1.6c0.7-0.4,1.6-0.6,2.5-0.6s1.8,0.2,2.5,0.7 c0.7,0.5,1.2,1.1,1.6,2c0.5-0.8,1.1-1.5,1.8-1.9c0.7-0.5,1.6-0.7,2.6-0.7c1.5,0,2.6,0.5,3.5,1.5c0.8,1,1.3,2.5,1.3,4.6v8.6H170 v-8.7c0-1.4-0.2-2.4-0.7-3c-0.5-0.6-1.2-0.9-2.2-0.9c-0.9,0-1.6,0.3-2.2,0.9c-0.6,0.6-0.9,1.4-1,2.4v0.1v9.2h-2.6v-8.7 c0-1.4-0.2-2.4-0.8-3c-0.5-0.6-1.2-1-2.2-1c-0.8,0-1.5,0.2-2,0.5c-0.5,0.3-0.9,0.8-1.2,1.4v10.7h-2.6V14.9L154.8,14.9L154.8,14.9z" /> <path
            fill="#333333"
            class="logoText"
            d="M188.8,22.7c0,2.1-0.5,3.8-1.5,5s-2.4,1.9-4.1,1.9c-0.9,0-1.7-0.1-2.3-0.5c-0.7-0.3-1.2-0.7-1.7-1.3V35 h-2.6V14.9h2l0.4,1.9c0.5-0.7,1.1-1.2,1.8-1.6c0.7-0.4,1.5-0.6,2.5-0.6c1.8,0,3.2,0.7,4.2,2.1s1.5,3.3,1.5,5.6L188.8,22.7 L188.8,22.7z M186.1,22.4c0-1.6-0.3-3-1-4c-0.6-1.1-1.6-1.6-2.9-1.6c-0.8,0-1.4,0.2-1.9,0.5s-1,0.8-1.3,1.4v7 c0.3,0.6,0.8,1.1,1.3,1.4c0.5,0.3,1.2,0.5,2,0.5c1.2,0,2.2-0.5,2.8-1.4c0.6-0.9,1-2.1,1-3.5V22.4z" /> </g> <g> <path
            fill="#33D5B4"
            d="M20.3,0L20.3,0C9.1,0,0,9.1,0,20.3l0,0c0,11.2,9.1,20.3,20.3,20.3l0,0c11.2,0,20.3-9.1,20.3-20.3l0,0 C40.6,9.1,31.5,0,20.3,0z" /> <g> <g> <g> <path
                        fill="#FFFFFF"
                        d="M33.1,17.4C33.1,17.4,33.1,17.4,33.1,17.4C33.1,17.4,33.1,17.4,33.1,17.4C33,17.4,33,17.4,33.1,17.4 l-2.6,2.5c0,0,0,0,0,0c0,0.1,0,0.2,0,0.3c0,2.7-1.1,5.3-3,7.2c-1.9,1.9-4.5,3-7.2,3c-2.7,0-5.3-1.1-7.2-3c-1.9-1.9-3-4.5-3-7.2 c0-5.6,4.6-10.2,10.2-10.2c0.1,0,0.2,0,0.3,0l0,0c0,0,0,0,0,0l2.5-2.5c0,0,0,0,0,0s0,0,0,0c-0.9-0.2-1.9-0.3-2.9-0.3 c-7.2,0-13.1,5.9-13.1,13.1c0,7.2,5.9,13.1,13.1,13.1c7.2,0,13.1-5.9,13.1-13.1C33.4,19.3,33.3,18.4,33.1,17.4z" /> <path
                        fill="#FFFFFF"
                        d="M22.7,10.3C22.7,10.4,22.7,10.4,22.7,10.3c1.4,0.4,2.6,0.9,3.7,1.7l-7.2,7.2c-0.6,0.6-0.6,1.6,0,2.2 c0.3,0.3,0.7,0.5,1.1,0.5c0.4,0,0.8-0.2,1.1-0.5l7.2-7.2c0.8,1.1,1.4,2.3,1.7,3.6c0,0,0,0,0,0c0,0,0,0,0,0s0,0,0,0l2.2-2.2 c0,0,0,0,0,0C31.2,12.1,28.5,9.4,25,8h0c0,0,0,0,0,0L22.7,10.3C22.7,10.3,22.7,10.3,22.7,10.3z" /> </g> </g> </g> </g> </svg>